<svg width="20" height="20" viewBox="0 0 20 20" fill="none" xmlns="http://www.w3.org/2000/svg">
<path d="M0.47619 0C0.349901 1.26271e-05 0.228787 0.0501866 0.139487 0.139487C0.0501866 0.228787 1.26271e-05 0.349901 0 0.47619V19.5238C1.26271e-05 19.6501 0.0501866 19.7712 0.139487 19.8605C0.228787 19.9498 0.349901 20 0.47619 20H19.5238C19.6501 20 19.7712 19.9498 19.8605 19.8605C19.9498 19.7712 20 19.6501 20 19.5238V0.47619C20 0.349901 19.9498 0.228787 19.8605 0.139487C19.7712 0.0501866 19.6501 1.26271e-05 19.5238 0H0.47619ZM0.952381 0.952381H19.0476V19.0476H0.952381V0.952381ZM5.2381 9.04762V10.6882H7.61905V18.0952H9.52381V10.6882H11.9048V9.04762H5.2381ZM15.5673 9.05227C14.0842 9.04637 12.3893 9.49582 12.3893 11.583C12.3893 14.3115 16.0658 14.3122 16.0658 15.5432C16.0658 15.6598 16.1153 16.5076 14.8177 16.5076C13.5201 16.5076 12.4386 15.692 12.4386 15.692V17.6721C12.4386 17.6721 18.0962 19.5019 18.0962 15.3757C18.0957 12.6972 14.3852 12.8311 14.3852 11.5002C14.3852 10.9845 14.7516 10.5022 15.7664 10.5022C16.7811 10.5022 17.6795 11.1012 17.6795 11.1012L17.7465 9.33687C17.7465 9.33687 16.7209 9.05686 15.5673 9.05227Z" fill="#EBE4E4"/>
</svg>
